<svg width="40" height="40" viewBox="0 0 40 40" fill="none" xmlns="http://www.w3.org/2000/svg">
<g id="&#236;&#178;&#180;&#237;&#129;&#172;&#235;&#176;&#149;&#236;&#138;&#164;_&#235;&#175;&#184;&#236;&#178;&#180;&#237;&#129;&#172;">
<path id="Vector" fill-rule="evenodd" clip-rule="evenodd" d="M11.6667 3.33331C9.45652 3.33331 7.33691 4.21129 5.77411 5.77409C4.2113 7.33689 3.33333 9.45651 3.33333 11.6666V28.3333C3.33333 30.5434 4.2113 32.6631 5.77411 34.2259C7.33691 35.7887 9.45652 36.6666 11.6667 36.6666H28.3333C30.5435 36.6666 32.6631 35.7887 34.2259 34.2259C35.7887 32.6631 36.6667 30.5434 36.6667 28.3333V11.6666C36.6667 9.45651 35.7887 7.33689 34.2259 5.77409C32.6631 4.21129 30.5435 3.33331 28.3333 3.33331H11.6667ZM26.2167 17.8066C26.3664 17.6469 26.4831 17.4592 26.5603 17.2543C26.6375 17.0494 26.6735 16.8313 26.6664 16.6124C26.6593 16.3936 26.6091 16.1783 26.5188 15.9789C26.4285 15.7794 26.2998 15.5997 26.14 15.45C25.9802 15.3003 25.7925 15.1835 25.5876 15.1063C25.3827 15.0292 25.1646 14.9931 24.9458 15.0002C24.7269 15.0073 24.5117 15.0575 24.3122 15.1478C24.1127 15.2381 23.933 15.3669 23.7833 15.5266L18.645 21.01L16.1067 18.755C15.7741 18.4785 15.3471 18.3421 14.9158 18.3747C14.4846 18.4072 14.0829 18.6061 13.7955 18.9293C13.5082 19.2526 13.3578 19.6749 13.376 20.1069C13.3943 20.539 13.5798 20.9471 13.8933 21.245L17.6433 24.5783C17.9678 24.8665 18.3919 25.0168 18.8255 24.9972C19.259 24.9776 19.6679 24.7897 19.965 24.4733L26.2167 17.8066Z" fill="#4ECB71"/>
</g>
</svg>
