<svg width="36" height="36" viewBox="0 0 36 36" fill="none" xmlns="http://www.w3.org/2000/svg">
<g id="Group">
<path id="Vector" fill-rule="evenodd" clip-rule="evenodd" d="M0 18C0 8.0586 8.0586 0 18 0C27.9414 0 36 8.0586 36 18C36 27.9414 27.9414 36 18 36C8.0586 36 0 27.9414 0 18ZM18 3.6C14.1809 3.6 10.5182 5.11714 7.81766 7.81766C5.11714 10.5182 3.6 14.1809 3.6 18C3.6 21.8191 5.11714 25.4818 7.81766 28.1823C10.5182 30.8829 14.1809 32.4 18 32.4C21.8191 32.4 25.4818 30.8829 28.1823 28.1823C30.8829 25.4818 32.4 21.8191 32.4 18C32.4 14.1809 30.8829 10.5182 28.1823 7.81766C25.4818 5.11714 21.8191 3.6 18 3.6Z" fill="#4ECB71"/>
<path id="Vector_2" fill-rule="evenodd" clip-rule="evenodd" d="M19.8 8.99998C19.8 8.52259 19.6104 8.06476 19.2728 7.72719C18.9352 7.38962 18.4774 7.19998 18 7.19998C17.5226 7.19998 17.0648 7.38962 16.7272 7.72719C16.3897 8.06476 16.2 8.52259 16.2 8.99998V16.2H9.00001C8.52262 16.2 8.06479 16.3896 7.72722 16.7272C7.38965 17.0648 7.20001 17.5226 7.20001 18C7.20001 18.4774 7.38965 18.9352 7.72722 19.2728C8.06479 19.6103 8.52262 19.8 9.00001 19.8H16.2V27C16.2 27.4774 16.3897 27.9352 16.7272 28.2728C17.0648 28.6103 17.5226 28.8 18 28.8C18.4774 28.8 18.9352 28.6103 19.2728 28.2728C19.6104 27.9352 19.8 27.4774 19.8 27V19.8H27C27.4774 19.8 27.9352 19.6103 28.2728 19.2728C28.6104 18.9352 28.8 18.4774 28.8 18C28.8 17.5226 28.6104 17.0648 28.2728 16.7272C27.9352 16.3896 27.4774 16.2 27 16.2H19.8V8.99998Z" fill="#4ECB71"/>
</g>
</svg>
