<svg width="16" height="27" viewBox="0 0 16 27" fill="none" xmlns="http://www.w3.org/2000/svg">
<g id="&#235;&#146;&#164;&#235;&#161;&#156;&#234;&#176;&#128;&#234;&#184;&#176;&#235;&#178;&#132;&#237;&#138;&#188;">
<path id="Vector" d="M15.2904 0.706611C15.0656 0.482618 14.7986 0.304911 14.5046 0.183661C14.2106 0.0624115 13.8955 0 13.5773 0C13.259 0 12.9439 0.0624115 12.6499 0.183661C12.356 0.304911 12.089 0.482618 11.8642 0.706611L0.710628 11.7971C0.485362 12.0206 0.306644 12.2861 0.184705 12.5784C0.0627664 12.8707 0 13.1841 0 13.5005C0 13.817 0.0627664 14.1303 0.184705 14.4226C0.306644 14.7149 0.485362 14.9804 0.710628 15.2039L11.8642 26.2944C12.0891 26.5181 12.3562 26.6956 12.6501 26.8166C12.9441 26.9377 13.2591 27 13.5773 27C13.8954 27 14.2105 26.9377 14.5044 26.8166C14.7984 26.6956 15.0654 26.5181 15.2904 26.2944C15.5154 26.0707 15.6938 25.8051 15.8156 25.5129C15.9373 25.2206 16 24.9073 16 24.591C16 24.2746 15.9373 23.9614 15.8156 23.6691C15.6938 23.3768 15.5154 23.1112 15.2904 22.8875L5.86215 13.4884L15.2904 4.11348C16.2138 3.17116 16.2138 1.62478 15.2904 0.706611Z" fill="#4ECB71"/>
</g>
</svg>
